<?xml version="1.0" standalone="no"?>
<!DOCTYPE svg PUBLIC "-//W3C//DTD SVG 20010904//EN"
 "http://www.w3.org/TR/2001/REC-SVG-20010904/DTD/svg10.dtd">
<svg version="1.0" xmlns="http://www.w3.org/2000/svg"
 width="357.000000pt" height="268.000000pt" viewBox="0 0 357.000000 268.000000"
 preserveAspectRatio="xMidYMid meet">

<g transform="translate(0.000000,268.000000) scale(0.100000,-0.100000)"
fill="#4C7F49" stroke="none">
<path d="M2547 2539 c-100 -53 -194 -211 -222 -373 -8 -49 -15 -99 -15 -112 0
-13 -4 -24 -8 -24 -4 0 -9 -10 -9 -22 -1 -13 -4 -36 -6 -51 -3 -22 -1 -27 10
-23 8 3 17 6 19 6 2 0 4 9 4 20 0 11 4 20 8 20 4 0 6 16 4 36 -9 77 49 284
103 369 36 56 82 106 135 148 41 31 31 34 -23 6z"/>
<path d="M2722 2479 c2 -6 8 -10 13 -10 5 0 11 4 13 10 2 6 -4 11 -13 11 -9 0
-15 -5 -13 -11z"/>
<path d="M2520 2450 c0 -5 5 -10 10 -10 6 0 10 5 10 10 0 6 -4 10 -10 10 -5 0
-10 -4 -10 -10z"/>
<path d="M2480 2265 c0 -9 5 -15 11 -13 6 2 11 8 11 13 0 5 -5 11 -11 13 -6 2
-11 -4 -11 -13z"/>
<path d="M2126 2175 c-45 -55 -137 -199 -177 -278 -84 -164 -133 -356 -127
-492 3 -65 9 -93 35 -148 36 -75 129 -177 161 -177 15 0 4 15 -44 62 -76 72
-121 156 -130 241 l-7 57 55 0 c154 0 309 113 369 270 23 61 53 194 47 212 -7
21 -36 -21 -43 -63 -8 -46 -24 -36 -26 16 -1 29 -1 29 -15 -10 l-13 -40 3 72
3 72 -18 -37 c-11 -20 -20 -54 -20 -77 -1 -34 -3 -29 -13 28 -6 37 -13 66 -16
65 -3 -2 -17 5 -32 14 -18 12 -28 14 -36 6 -8 -8 -15 -8 -25 0 -8 7 -18 8 -22
4 -5 -4 -5 1 -2 11 4 10 7 21 7 23 0 2 12 4 28 5 23 0 25 2 10 12 -15 10 -15
14 3 50 11 21 36 63 55 93 19 30 33 54 31 54 -3 0 -21 -20 -41 -45z m-56 -363
c0 -4 -9 -13 -19 -19 -15 -10 -20 -9 -24 1 -3 8 -3 17 0 20 9 9 43 7 43 -2z
m-84 -51 c-16 -16 -26 -33 -23 -38 3 -5 -3 -9 -14 -9 -15 0 -12 7 18 38 20 21
39 38 42 38 3 0 -8 -13 -23 -29z m264 -37 c0 -14 -4 -23 -9 -20 -5 3 -7 15 -4
26 7 28 13 25 13 -6z m-68 1 c0 -5 -5 -11 -11 -13 -6 -2 -11 4 -11 13 0 9 5
15 11 13 6 -2 11 -8 11 -13z m-131 -38 c-13 -13 -26 -3 -16 12 3 6 11 8 17 5
6 -4 6 -10 -1 -17z m99 -1 c0 -2 -8 -10 -17 -17 -16 -13 -17 -12 -4 4 13 16
21 21 21 13z m-175 -136 c10 -11 16 -20 13 -20 -3 0 -13 9 -23 20 -10 11 -16
20 -13 20 3 0 13 -9 23 -20z"/>
<path d="M1191 2052 c24 -16 57 -43 71 -61 34 -40 83 -142 96 -201 36 -162 68
-240 120 -293 66 -68 158 -99 247 -83 35 7 36 9 30 39 -10 45 -65 163 -107
228 -41 63 -139 181 -146 175 -2 -3 16 -34 41 -69 l44 -64 -28 -17 c-19 -11
-29 -13 -29 -5 0 9 -3 9 -14 0 -11 -9 -15 -9 -19 1 -3 7 -6 -6 -6 -29 -1 -24
-6 -43 -12 -43 -6 0 -10 19 -9 48 2 66 1 72 -11 72 -8 0 -9 -15 -4 -46 5 -36
4 -45 -6 -42 -8 3 -16 15 -20 29 -7 23 -7 22 -9 -6 -2 -27 -4 -25 -19 20 -10
28 -20 57 -24 65 -3 8 -13 40 -22 71 -16 59 -63 141 -98 174 -42 39 -80 65
-95 65 -9 0 4 -13 29 -28z m417 -435 c4 -19 -6 -21 -27 -8 -16 10 -5 34 12 28
7 -2 13 -11 15 -20z m-17 -70 c-16 -16 -26 0 -10 19 9 11 15 12 17 4 2 -6 -1
-17 -7 -23z"/>
<path d="M1190 2020 c0 -5 5 -10 11 -10 5 0 7 5 4 10 -3 6 -8 10 -11 10 -2 0
-4 -4 -4 -10z"/>
<path d="M1924 1994 c3 -9 6 -21 6 -27 0 -7 5 -4 11 6 11 18 5 37 -13 37 -5 0
-7 -7 -4 -16z"/>
<path d="M2060 1979 c0 -5 5 -7 10 -4 6 3 10 8 10 11 0 2 -4 4 -10 4 -5 0 -10
-5 -10 -11z"/>
<path d="M1215 1900 c3 -5 8 -10 11 -10 2 0 4 5 4 10 0 6 -5 10 -11 10 -5 0
-7 -4 -4 -10z"/>
<path d="M1689 1818 c-1 -40 0 -79 1 -87 1 -9 -4 -12 -14 -8 -20 8 -9 -21 33
-90 17 -27 38 -67 47 -89 l17 -39 13 75 c7 41 22 102 34 134 20 59 27 101 12
80 -10 -15 -42 -25 -42 -14 0 5 -18 28 -40 52 -22 24 -40 46 -40 51 0 4 -4 7
-10 7 -6 0 -11 -32 -11 -72z"/>
<path d="M390 1034 c-74 -11 -95 -19 -126 -46 -54 -48 -77 -101 -82 -193 -4
-68 -1 -89 18 -133 45 -105 146 -157 256 -132 105 24 154 86 157 202 l2 63
-97 3 -98 3 0 -36 0 -35 55 0 c53 0 55 -1 55 -28 0 -79 -101 -126 -186 -86
-51 24 -74 76 -74 165 0 120 46 179 139 179 38 0 49 -5 82 -40 32 -34 44 -40
79 -40 l40 0 -24 49 c-16 30 -39 58 -62 72 -35 21 -101 37 -134 33z"/>
<path d="M3283 1029 c-114 -27 -158 -171 -73 -242 16 -14 64 -34 112 -47 46
-12 91 -29 101 -38 21 -19 22 -65 2 -82 -39 -32 -147 -21 -208 22 -16 11 -30
19 -31 17 -2 -2 -11 -18 -20 -36 -16 -31 -15 -32 12 -51 71 -51 210 -64 283
-26 62 31 88 127 54 193 -17 33 -51 51 -158 82 -91 26 -118 52 -99 95 23 49
102 56 184 15 23 -11 42 -19 43 -18 1 1 9 15 18 30 22 34 16 44 -37 67 -53 23
-130 31 -183 19z"/>
<path d="M2200 780 l0 -250 161 0 160 0 -3 37 -3 38 -115 1 -115 1 -3 211 -2
212 -40 0 -40 0 0 -250z"/>
<path d="M2586 1021 c-3 -5 -6 -118 -5 -250 l1 -241 44 0 44 0 2 168 3 167 60
-137 c56 -129 62 -138 87 -138 33 0 40 11 104 157 27 62 52 113 56 113 3 0 6
-73 5 -162 l-2 -163 43 -3 42 -3 0 250 0 251 -48 0 -48 0 -69 -156 c-38 -85
-72 -157 -75 -159 -4 -2 -38 67 -76 153 l-70 157 -46 3 c-25 2 -49 -1 -52 -7z"/>
<path d="M810 880 l-28 -30 -6 25 c-5 21 -12 25 -41 25 l-35 0 0 -185 0 -185
40 0 41 0 -2 132 c-1 131 -1 133 26 155 16 14 39 23 61 23 32 0 34 2 34 35 0
32 -2 35 -31 35 -22 0 -40 -9 -59 -30z"/>
<path d="M1035 896 c-127 -55 -137 -276 -17 -344 44 -25 137 -30 175 -11 32
17 77 61 77 76 0 20 -58 16 -87 -7 -25 -20 -84 -27 -118 -14 -19 8 -45 55 -45
84 0 20 4 21 133 19 131 -1 132 -1 135 22 9 59 -39 143 -100 175 -34 17 -113
18 -153 0z m119 -57 c21 -10 56 -62 56 -83 0 -3 -43 -6 -95 -6 -84 0 -95 2
-95 18 0 24 28 62 54 72 30 12 51 12 80 -1z"/>
<path d="M1445 896 c-122 -54 -141 -261 -32 -340 34 -25 143 -34 187 -16 29
12 80 63 80 80 0 10 -63 20 -70 11 -15 -21 -59 -41 -88 -41 -44 0 -68 14 -88
51 -28 56 -19 60 126 58 72 0 133 0 135 2 1 2 -1 28 -6 57 -10 64 -47 118 -95
138 -42 17 -110 17 -149 0z m142 -79 c12 -12 24 -33 25 -46 3 -23 2 -23 -92
-23 -52 -1 -95 3 -97 8 -5 16 36 74 60 84 31 13 78 3 104 -23z"/>
<path d="M1908 894 c-15 -8 -32 -23 -38 -34 -16 -29 -30 -24 -30 10 0 28 -3
30 -35 30 l-35 0 0 -185 0 -185 40 0 40 0 0 130 c0 126 1 132 25 155 32 33 93
34 121 4 16 -18 19 -40 22 -155 l4 -134 40 0 40 0 -4 153 c-2 96 -8 160 -16
174 -27 49 -117 68 -174 37z"/>
<path d="M610 322 l0 -72 48 1 47 2 -40 6 -40 6 -2 59 c-4 84 -13 83 -13 -2z"/>
<path d="M721 320 l0 -70 52 2 c50 1 50 2 10 5 -38 4 -43 7 -43 29 0 19 5 24
25 24 14 0 25 5 25 10 0 6 -11 10 -25 10 -20 0 -25 5 -25 24 0 21 5 25 38 29
35 3 34 4 -10 5 l-46 2 -1 -70z"/>
<path d="M881 372 c-21 -39 -49 -122 -41 -122 5 0 12 9 15 20 5 15 15 20 40
20 25 0 35 -5 40 -20 3 -11 11 -20 16 -20 5 0 -2 30 -16 66 -14 37 -25 68 -25
70 0 12 -21 1 -29 -14z m33 -49 c6 -20 4 -23 -18 -23 -30 0 -29 -2 -15 40 12
34 19 30 33 -17z"/>
<path d="M980 321 c0 -41 4 -71 10 -71 6 0 10 14 10 30 0 40 25 40 48 0 24
-43 44 -41 21 1 -7 15 -7 24 1 34 6 8 10 26 8 42 -3 26 -7 28 -50 31 l-48 3 0
-70z m84 43 c9 -22 -11 -44 -40 -44 -20 0 -24 5 -24 30 0 26 3 30 29 30 17 0
31 -6 35 -16z"/>
<path d="M1110 320 c0 -40 4 -70 10 -70 6 0 10 26 10 58 l0 57 38 -57 c20 -32
40 -58 45 -58 10 0 13 34 7 105 -3 35 -4 33 -9 -20 l-6 -60 -35 58 c-47 77
-60 75 -60 -13z"/>
<path d="M1386 374 c-19 -19 -21 -83 -3 -108 9 -13 23 -17 52 -14 37 3 40 5
43 36 3 29 1 32 -25 31 -27 0 -27 -1 -5 -9 19 -8 21 -13 12 -30 -6 -11 -19
-20 -30 -20 -42 0 -64 56 -40 101 13 23 55 25 64 3 3 -8 11 -12 16 -9 18 11
-10 35 -41 35 -15 0 -35 -7 -43 -16z"/>
<path d="M1510 320 c0 -40 4 -70 10 -70 6 0 10 14 10 30 0 23 4 30 20 30 12 0
26 -12 35 -30 9 -16 20 -30 26 -30 5 0 2 14 -6 30 -14 27 -14 33 -1 52 24 35
5 58 -49 58 l-45 0 0 -70z m80 45 c17 -20 -3 -45 -36 -45 -20 0 -24 5 -24 30
0 25 4 30 24 30 13 0 29 -7 36 -15z"/>
<path d="M1662 378 c-45 -58 4 -157 62 -126 29 15 36 28 36 69 0 22 -7 42 -18
52 -22 20 -65 22 -80 5z m77 -29 c26 -48 -25 -111 -64 -79 -18 15 -20 81 -3
98 19 19 51 10 67 -19z"/>
<path d="M1801 323 c10 -38 19 -69 19 -70 0 -2 4 -3 9 -3 5 0 14 23 21 51 14
56 21 55 39 -8 6 -24 16 -43 20 -43 5 0 16 29 25 65 19 75 19 78 7 71 -5 -4
-12 -24 -16 -46 -10 -57 -21 -57 -35 0 -7 28 -16 50 -21 50 -4 0 -14 -19 -20
-42 -18 -64 -25 -65 -39 -9 -7 28 -16 51 -20 51 -5 0 0 -30 11 -67z"/>
<path d="M2086 368 c-20 -29 -20 -67 0 -96 21 -31 87 -28 93 3 3 19 3 19 -16
3 -38 -34 -74 -15 -75 41 -2 55 37 78 74 44 20 -18 25 -4 6 15 -20 20 -65 14
-82 -10z"/>
<path d="M2220 371 c-5 -11 -10 -34 -10 -51 0 -50 16 -70 55 -70 24 0 39 7 49
22 36 51 8 118 -49 118 -24 0 -38 -6 -45 -19z m84 -23 c22 -63 -33 -116 -68
-66 -9 12 -16 29 -16 38 0 9 7 26 16 38 21 31 56 25 68 -10z"/>
<path d="M2360 318 c0 -79 7 -89 11 -15 2 26 5 47 8 47 3 0 21 -23 40 -50 19
-28 38 -50 43 -50 4 0 7 33 6 73 -1 62 -2 65 -5 20 -2 -29 -7 -53 -11 -53 -4
0 -22 23 -40 50 -18 28 -37 50 -42 50 -6 0 -10 -32 -10 -72z"/>
<path d="M2512 318 l1 -73 6 55 6 55 38 -52 c22 -29 43 -53 48 -53 5 0 9 32 9
70 0 81 -18 95 -22 18 l-3 -53 -35 52 c-19 29 -38 53 -42 53 -5 0 -7 -33 -6
-72z"/>
<path d="M2652 320 l-3 -70 53 2 c50 1 51 2 11 5 -38 4 -43 7 -43 29 0 20 5
24 29 24 17 0 33 5 36 10 4 6 -8 10 -29 10 -31 0 -36 3 -36 24 0 22 5 25 43
29 l42 4 -50 1 -50 2 -3 -70z"/>
<path d="M2786 368 c-50 -71 32 -161 89 -98 10 11 13 20 8 20 -6 0 -16 -7 -23
-15 -30 -36 -70 -10 -70 45 0 57 34 77 72 43 16 -14 18 -14 18 -1 0 34 -72 38
-94 6z"/>
<path d="M2928 383 c20 -4 22 -10 22 -69 0 -36 4 -64 10 -64 6 0 10 28 10 64
0 59 2 65 23 69 12 2 -3 4 -33 4 -30 0 -45 -2 -32 -4z"/>
<path d="M1260 260 c0 -5 5 -10 10 -10 6 0 10 5 10 10 0 6 -4 10 -10 10 -5 0
-10 -4 -10 -10z"/>
</g>
</svg>
